%TF.GenerationSoftware,KiCad,Pcbnew,8.0.8+dfsg-1*%
%TF.CreationDate,2025-08-04T21:21:26+02:00*%
%TF.ProjectId,PicoSpoxAdapter_v2,5069636f-5370-46f7-9841-646170746572,rev?*%
%TF.SameCoordinates,Original*%
%TF.FileFunction,Soldermask,Top*%
%TF.FilePolarity,Negative*%
%FSLAX46Y46*%
G04 Gerber Fmt 4.6, Leading zero omitted, Abs format (unit mm)*
G04 Created by KiCad (PCBNEW 8.0.8+dfsg-1) date 2025-08-04 21:21:26*
%MOMM*%
%LPD*%
G01*
G04 APERTURE LIST*
%ADD10C,2.154000*%
%ADD11R,2.641600X0.838200*%
%ADD12R,3.556000X0.838200*%
G04 APERTURE END LIST*
D10*
%TO.C,J3*%
X190500000Y-110500000D03*
X195500000Y-110500000D03*
%TD*%
%TO.C,J4*%
X195500000Y-95500000D03*
X190500000Y-95500000D03*
%TD*%
D11*
%TO.C,J2*%
X202454801Y-109499999D03*
D12*
X206354801Y-109499999D03*
D11*
X202454801Y-108000000D03*
D12*
X206354801Y-108000000D03*
D11*
X202454801Y-106500000D03*
D12*
X206354801Y-106500000D03*
D11*
X202454801Y-105000001D03*
D12*
X206354801Y-105000001D03*
D11*
X202454801Y-103500001D03*
D12*
X206354801Y-103500001D03*
D11*
X202454801Y-102000002D03*
D12*
X206354801Y-102000002D03*
D11*
X202454801Y-100499999D03*
D12*
X206354801Y-100499999D03*
D11*
X202454801Y-99000000D03*
D12*
X206354801Y-99000000D03*
D11*
X202454801Y-97500000D03*
D12*
X206354801Y-97500000D03*
D11*
X202454801Y-96000001D03*
D12*
X206354801Y-96000001D03*
%TD*%
D11*
%TO.C,J1*%
X183400000Y-96999999D03*
D12*
X179500000Y-96999999D03*
D11*
X183400000Y-98499999D03*
D12*
X179500000Y-98499999D03*
D11*
X183400000Y-99999998D03*
D12*
X179500000Y-99999998D03*
D11*
X183400000Y-101499998D03*
D12*
X179500000Y-101499998D03*
D11*
X183400000Y-103000000D03*
D12*
X179500000Y-103000000D03*
D11*
X183400000Y-104500000D03*
D12*
X179500000Y-104500000D03*
D11*
X183400000Y-105999999D03*
D12*
X179500000Y-105999999D03*
D11*
X183400000Y-107499999D03*
D12*
X179500000Y-107499999D03*
%TD*%
M02*
