ISO-10303-21;
HEADER;
FILE_DESCRIPTION (( 'STEP AP203' ),
    '1' );
FILE_NAME ('101 x 127mm AOI Cold Mirror Master_64452.step',
    '2020-06-01T18:33:55',
    ( '' ),
    ( '' ),
    'SwSTEP 2.0',
    'SolidWorks 2018',
    '' );
FILE_SCHEMA (( 'CONFIG_CONTROL_DESIGN' ));
ENDSEC;

DATA;
#1 =( NAMED_UNIT ( * ) SI_UNIT ( $, .STERADIAN. ) SOLID_ANGLE_UNIT ( ) );
#2 = VECTOR ( 'NONE', #233, 1000.000000000000000 ) ;
#3 = PRODUCT_RELATED_PRODUCT_CATEGORY ( 'detail', '', ( #172 ) ) ;
#4 = VERTEX_POINT ( 'NONE', #46 ) ;
#5 = AXIS2_PLACEMENT_3D ( 'NONE', #31, #108, #32 ) ;
#6 = LINE ( 'NONE', #170, #191 ) ;
#7 = APPROVAL_PERSON_ORGANIZATION ( #33, #208, #235 ) ;
#8 = DATE_AND_TIME ( #159, #227 ) ;
#9 = DIRECTION ( 'NONE',  ( -1.000000000000000000, -0.0000000000000000000, -0.0000000000000000000 ) ) ;
#10 = CARTESIAN_POINT ( 'NONE',  ( 63.50000000000000000, 50.50000000000000000, 3.299999999999999822 ) ) ;
#11 = EDGE_LOOP ( 'NONE', ( #36, #193, #15, #89 ) ) ;
#12 = DIRECTION ( 'NONE',  ( 1.000000000000000000, 0.0000000000000000000, 0.0000000000000000000 ) ) ;
#13 = APPLICATION_CONTEXT ( 'configuration controlled 3d designs of mechanical parts and assemblies' ) ;
#14 = PLANE ( 'NONE',  #212 ) ;
#15 = ORIENTED_EDGE ( 'NONE', *, *, #27, .T. ) ;
#16 = CC_DESIGN_PERSON_AND_ORGANIZATION_ASSIGNMENT ( #135, #64, ( #55 ) ) ;
#17 = ORIENTED_EDGE ( 'NONE', *, *, #94, .F. ) ;
#18 = EDGE_LOOP ( 'NONE', ( #38, #17, #225, #140 ) ) ;
#19 = LINE ( 'NONE', #175, #103 ) ;
#20 = CLOSED_SHELL ( 'NONE', ( #63, #134, #216, #49, #28, #104 ) ) ;
#21 = SHAPE_DEFINITION_REPRESENTATION ( #165, #93 ) ;
#22 = EDGE_LOOP ( 'NONE', ( #151, #162, #83, #120 ) ) ;
#23 = CARTESIAN_POINT ( 'NONE',  ( -63.49999999999998579, -50.50000000000000000, 0.0000000000000000000 ) ) ;
#24 = APPROVAL_PERSON_ORGANIZATION ( #110, #130, #84 ) ;
#25 = DIRECTION ( 'NONE',  ( 1.374038396813312538E-16, -1.000000000000000000, 0.0000000000000000000 ) ) ;
#26 = VERTEX_POINT ( 'NONE', #149 ) ;
#27 = EDGE_CURVE ( 'NONE', #85, #79, #210, .T. ) ;
#28 = ADVANCED_FACE ( 'NONE', ( #236 ), #171, .T. ) ;
#29 =( LENGTH_UNIT ( ) NAMED_UNIT ( * ) SI_UNIT ( .MILLI., .METRE. ) );
#30 = AXIS2_PLACEMENT_3D ( 'NONE', #131, #132, #117 ) ;
#31 = CARTESIAN_POINT ( 'NONE',  ( 0.0000000000000000000, 0.0000000000000000000, 0.0000000000000000000 ) ) ;
#32 = DIRECTION ( 'NONE',  ( 1.000000000000000000, 0.0000000000000000000, 0.0000000000000000000 ) ) ;
#33 = PERSON_AND_ORGANIZATION ( #59, #147 ) ;
#34 = VERTEX_POINT ( 'NONE', #211 ) ;
#35 = VECTOR ( 'NONE', #78, 1000.000000000000000 ) ;
#36 = ORIENTED_EDGE ( 'NONE', *, *, #196, .T. ) ;
#37 = UNCERTAINTY_MEASURE_WITH_UNIT (LENGTH_MEASURE( 1.000000000000000082E-05 ), #29, 'distance_accuracy_value', 'NONE');
#38 = ORIENTED_EDGE ( 'NONE', *, *, #87, .T. ) ;
#39 = EDGE_CURVE ( 'NONE', #79, #34, #95, .T. ) ;
#40 = VECTOR ( 'NONE', #25, 1000.000000000000000 ) ;
#41 = CALENDAR_DATE ( 2020, 1, 6 ) ;
#42 = DIRECTION ( 'NONE',  ( -0.0000000000000000000, 0.0000000000000000000, 1.000000000000000000 ) ) ;
#43 = ORIENTED_EDGE ( 'NONE', *, *, #87, .F. ) ;
#44 = CARTESIAN_POINT ( 'NONE',  ( -63.49999999999998579, -50.50000000000000000, 3.299999999999999822 ) ) ;
#45 = EDGE_CURVE ( 'NONE', #85, #4, #125, .T. ) ;
#46 = CARTESIAN_POINT ( 'NONE',  ( -63.50000000000000000, 50.50000000000000000, 0.0000000000000000000 ) ) ;
#47 = PERSON_AND_ORGANIZATION_ROLE ( 'design_owner' ) ;
#48 = DIRECTION ( 'NONE',  ( 1.374038396813312538E-16, 1.000000000000000000, -0.0000000000000000000 ) ) ;
#49 = ADVANCED_FACE ( 'NONE', ( #148 ), #150, .F. ) ;
#50 = APPLICATION_PROTOCOL_DEFINITION ( 'international standard', 'config_control_design', 1994, #181 ) ;
#51 = AXIS2_PLACEMENT_3D ( 'NONE', #234, #42, #129 ) ;
#52 = ORIENTED_EDGE ( 'NONE', *, *, #118, .F. ) ;
#53 = PERSON_AND_ORGANIZATION ( #59, #147 ) ;
#54 = VECTOR ( 'NONE', #9, 1000.000000000000000 ) ;
#55 = PRODUCT_DEFINITION ( 'UNKNOWN', '', #223, #202 ) ;
#56 = EDGE_LOOP ( 'NONE', ( #207, #182, #111, #203 ) ) ;
#57 = ORIENTED_EDGE ( 'NONE', *, *, #27, .F. ) ;
#58 = AXIS2_PLACEMENT_3D ( 'NONE', #80, #77, #12 ) ;
#59 = PERSON ( 'UNSPECIFIED', 'UNSPECIFIED', 'UNSPECIFIED', ('UNSPECIFIED'), ('UNSPECIFIED'), ('UNSPECIFIED') ) ;
#60 = EDGE_LOOP ( 'NONE', ( #226, #99, #57, #142 ) ) ;
#61 = CARTESIAN_POINT ( 'NONE',  ( 63.50000000000000000, 50.50000000000000000, 3.299999999999999822 ) ) ;
#62 = EDGE_LOOP ( 'NONE', ( #112, #43, #52, #136 ) ) ;
#63 = ADVANCED_FACE ( 'NONE', ( #222 ), #97, .F. ) ;
#64 = PERSON_AND_ORGANIZATION_ROLE ( 'creator' ) ;
#65 = SECURITY_CLASSIFICATION_LEVEL ( 'unclassified' ) ;
#66 = VERTEX_POINT ( 'NONE', #10 ) ;
#67 = APPROVAL_PERSON_ORGANIZATION ( #237, #169, #119 ) ;
#68 = CC_DESIGN_DATE_AND_TIME_ASSIGNMENT ( #161, #201, ( #55 ) ) ;
#69 = AXIS2_PLACEMENT_3D ( 'NONE', #44, #127, #215 ) ;
#70 = LOCAL_TIME ( 14, 33, 55.00000000000000000, #88 ) ;
#71 = EDGE_CURVE ( 'NONE', #66, #85, #19, .T. ) ;
#72 = MANIFOLD_SOLID_BREP ( 'Extrude1', #20 ) ;
#73 = APPROVAL_DATE_TIME ( #8, #130 ) ;
#74 = EDGE_CURVE ( 'NONE', #231, #4, #157, .T. ) ;
#75 = COORDINATED_UNIVERSAL_TIME_OFFSET ( 5, 0, .BEHIND. ) ;
#76 =( GEOMETRIC_REPRESENTATION_CONTEXT ( 3 ) GLOBAL_UNCERTAINTY_ASSIGNED_CONTEXT ( ( #37 ) ) GLOBAL_UNIT_ASSIGNED_CONTEXT ( ( #29, #139, #1 ) ) REPRESENTATION_CONTEXT ( 'NONE', 'WORKASPACE' ) );
#77 = DIRECTION ( 'NONE',  ( -0.0000000000000000000, 0.0000000000000000000, 1.000000000000000000 ) ) ;
#78 = DIRECTION ( 'NONE',  ( 1.000000000000000000, 0.0000000000000000000, 0.0000000000000000000 ) ) ;
#79 = VERTEX_POINT ( 'NONE', #101 ) ;
#80 = CARTESIAN_POINT ( 'NONE',  ( 63.49999999999998579, -50.50000000000000000, 3.299999999999999822 ) ) ;
#81 = DIRECTION ( 'NONE',  ( -1.374038396813312784E-16, 1.000000000000000000, 0.0000000000000000000 ) ) ;
#82 = VECTOR ( 'NONE', #213, 1000.000000000000000 ) ;
#83 = ORIENTED_EDGE ( 'NONE', *, *, #71, .F. ) ;
#84 = APPROVAL_ROLE ( '' ) ;
#85 = VERTEX_POINT ( 'NONE', #173 ) ;
#86 = PERSON_AND_ORGANIZATION ( #59, #147 ) ;
#87 = EDGE_CURVE ( 'NONE', #26, #232, #206, .T. ) ;
#88 = COORDINATED_UNIVERSAL_TIME_OFFSET ( 5, 0, .BEHIND. ) ;
#89 = ORIENTED_EDGE ( 'NONE', *, *, #39, .T. ) ;
#90 = LOCAL_TIME ( 14, 33, 55.00000000000000000, #155 ) ;
#91 = CC_DESIGN_PERSON_AND_ORGANIZATION_ASSIGNMENT ( #86, #122, ( #143 ) ) ;
#92 = LINE ( 'NONE', #190, #186 ) ;
#93 = ADVANCED_BREP_SHAPE_REPRESENTATION ( '101 x 127mm AOI Cold Mirror Master_64452', ( #72, #5 ), #76 ) ;
#94 = EDGE_CURVE ( 'NONE', #34, #232, #198, .T. ) ;
#95 = LINE ( 'NONE', #192, #35 ) ;
#96 = DIRECTION ( 'NONE',  ( -1.000000000000000000, 1.374038396813312784E-16, 0.0000000000000000000 ) ) ;
#97 = PLANE ( 'NONE',  #228 ) ;
#98 = CC_DESIGN_PERSON_AND_ORGANIZATION_ASSIGNMENT ( #163, #158, ( #223 ) ) ;
#99 = ORIENTED_EDGE ( 'NONE', *, *, #176, .F. ) ;
#100 = CARTESIAN_POINT ( 'NONE',  ( -63.50000000000000000, 50.50000000000000000, 0.0000000000000000000 ) ) ;
#101 = CARTESIAN_POINT ( 'NONE',  ( -63.49999999999998579, -50.50000000000000000, 3.299999999999999822 ) ) ;
#102 = VECTOR ( 'NONE', #219, 1000.000000000000000 ) ;
#103 = VECTOR ( 'NONE', #230, 1000.000000000000000 ) ;
#104 = ADVANCED_FACE ( 'NONE', ( #109 ), #153, .F. ) ;
#105 = PERSON_AND_ORGANIZATION_ROLE ( 'design_supplier' ) ;
#106 = DIRECTION ( 'NONE',  ( 1.374038396813312538E-16, 1.000000000000000000, -0.0000000000000000000 ) ) ;
#107 = FACE_OUTER_BOUND ( 'NONE', #22, .T. ) ;
#108 = DIRECTION ( 'NONE',  ( 0.0000000000000000000, 0.0000000000000000000, 1.000000000000000000 ) ) ;
#109 = FACE_OUTER_BOUND ( 'NONE', #62, .T. ) ;
#110 = PERSON_AND_ORGANIZATION ( #59, #147 ) ;
#111 = ORIENTED_EDGE ( 'NONE', *, *, #196, .F. ) ;
#112 = ORIENTED_EDGE ( 'NONE', *, *, #160, .F. ) ;
#113 = CARTESIAN_POINT ( 'NONE',  ( -63.50000000000000000, 50.50000000000000000, 3.299999999999999822 ) ) ;
#114 = PERSON_AND_ORGANIZATION ( #59, #147 ) ;
#115 = CARTESIAN_POINT ( 'NONE',  ( 63.49999999999998579, -50.50000000000000000, 3.299999999999999822 ) ) ;
#116 = APPROVAL_DATE_TIME ( #188, #208 ) ;
#117 = DIRECTION ( 'NONE',  ( 0.0000000000000000000, -0.0000000000000000000, -1.000000000000000000 ) ) ;
#118 = EDGE_CURVE ( 'NONE', #4, #26, #126, .T. ) ;
#119 = APPROVAL_ROLE ( '' ) ;
#120 = ORIENTED_EDGE ( 'NONE', *, *, #146, .T. ) ;
#121 = DATE_AND_TIME ( #41, #90 ) ;
#122 = PERSON_AND_ORGANIZATION_ROLE ( 'classification_officer' ) ;
#123 = LINE ( 'NONE', #220, #102 ) ;
#124 = CC_DESIGN_DATE_AND_TIME_ASSIGNMENT ( #144, #133, ( #143 ) ) ;
#125 = LINE ( 'NONE', #113, #184 ) ;
#126 = LINE ( 'NONE', #152, #167 ) ;
#127 = DIRECTION ( 'NONE',  ( 0.0000000000000000000, 1.000000000000000000, 0.0000000000000000000 ) ) ;
#128 = PLANE ( 'NONE',  #30 ) ;
#129 = DIRECTION ( 'NONE',  ( 1.000000000000000000, 0.0000000000000000000, 0.0000000000000000000 ) ) ;
#130 = APPROVAL ( #178, 'UNSPECIFIED' ) ;
#131 = CARTESIAN_POINT ( 'NONE',  ( -63.50000000000000000, 50.50000000000000000, 3.299999999999999822 ) ) ;
#132 = DIRECTION ( 'NONE',  ( 0.0000000000000000000, -1.000000000000000000, 0.0000000000000000000 ) ) ;
#133 = DATE_TIME_ROLE ( 'classification_date' ) ;
#134 = ADVANCED_FACE ( 'NONE', ( #107 ), #128, .F. ) ;
#135 = PERSON_AND_ORGANIZATION ( #59, #147 ) ;
#136 = ORIENTED_EDGE ( 'NONE', *, *, #74, .F. ) ;
#137 = CARTESIAN_POINT ( 'NONE',  ( 63.50000000000000000, 50.50000000000000000, 3.299999999999999822 ) ) ;
#138 = CC_DESIGN_PERSON_AND_ORGANIZATION_ASSIGNMENT ( #114, #105, ( #223 ) ) ;
#139 =( NAMED_UNIT ( * ) PLANE_ANGLE_UNIT ( ) SI_UNIT ( $, .RADIAN. ) );
#140 = ORIENTED_EDGE ( 'NONE', *, *, #176, .T. ) ;
#141 = COORDINATED_UNIVERSAL_TIME_OFFSET ( 5, 0, .BEHIND. ) ;
#142 = ORIENTED_EDGE ( 'NONE', *, *, #45, .T. ) ;
#143 = SECURITY_CLASSIFICATION ( '', '', #65 ) ;
#144 = DATE_AND_TIME ( #204, #185 ) ;
#145 = CC_DESIGN_APPROVAL ( #130, ( #223 ) ) ;
#146 = EDGE_CURVE ( 'NONE', #66, #231, #6, .T. ) ;
#147 = ORGANIZATION ( 'UNSPECIFIED', 'UNSPECIFIED', '' ) ;
#148 = FACE_OUTER_BOUND ( 'NONE', #18, .T. ) ;
#149 = CARTESIAN_POINT ( 'NONE',  ( -63.49999999999998579, -50.50000000000000000, 0.0000000000000000000 ) ) ;
#150 = PLANE ( 'NONE',  #69 ) ;
#151 = ORIENTED_EDGE ( 'NONE', *, *, #74, .T. ) ;
#152 = CARTESIAN_POINT ( 'NONE',  ( -63.50000000000000000, 50.50000000000000000, 0.0000000000000000000 ) ) ;
#153 = PLANE ( 'NONE',  #51 ) ;
#154 = VECTOR ( 'NONE', #48, 1000.000000000000000 ) ;
#155 = COORDINATED_UNIVERSAL_TIME_OFFSET ( 5, 0, .BEHIND. ) ;
#156 = APPLICATION_PROTOCOL_DEFINITION ( 'international standard', 'config_control_design', 1994, #13 ) ;
#157 = LINE ( 'NONE', #100, #54 ) ;
#158 = PERSON_AND_ORGANIZATION_ROLE ( 'creator' ) ;
#159 = CALENDAR_DATE ( 2020, 1, 6 ) ;
#160 = EDGE_CURVE ( 'NONE', #232, #231, #92, .T. ) ;
#161 = DATE_AND_TIME ( #214, #70 ) ;
#162 = ORIENTED_EDGE ( 'NONE', *, *, #45, .F. ) ;
#163 = PERSON_AND_ORGANIZATION ( #59, #147 ) ;
#164 = CALENDAR_DATE ( 2020, 1, 6 ) ;
#165 = PRODUCT_DEFINITION_SHAPE ( 'NONE', 'NONE',  #55 ) ;
#166 = CC_DESIGN_SECURITY_CLASSIFICATION ( #143, ( #223 ) ) ;
#167 = VECTOR ( 'NONE', #194, 1000.000000000000000 ) ;
#168 = DIRECTION ( 'NONE',  ( -0.0000000000000000000, -0.0000000000000000000, -1.000000000000000000 ) ) ;
#169 = APPROVAL ( #177, 'UNSPECIFIED' ) ;
#170 = CARTESIAN_POINT ( 'NONE',  ( 63.50000000000000000, 50.50000000000000000, 3.299999999999999822 ) ) ;
#171 = PLANE ( 'NONE',  #58 ) ;
#172 = PRODUCT ( '101 x 127mm AOI Cold Mirror Master_64452', '101 x 127mm AOI Cold Mirror Master_64452', '', ( #221 ) ) ;
#173 = CARTESIAN_POINT ( 'NONE',  ( -63.50000000000000000, 50.50000000000000000, 3.299999999999999822 ) ) ;
#174 = LOCAL_TIME ( 14, 33, 55.00000000000000000, #141 ) ;
#175 = CARTESIAN_POINT ( 'NONE',  ( -63.50000000000000000, 50.50000000000000000, 3.299999999999999822 ) ) ;
#176 = EDGE_CURVE ( 'NONE', #79, #26, #123, .T. ) ;
#177 = APPROVAL_STATUS ( 'not_yet_approved' ) ;
#178 = APPROVAL_STATUS ( 'not_yet_approved' ) ;
#179 = APPROVAL_DATE_TIME ( #121, #169 ) ;
#180 = APPROVAL_STATUS ( 'not_yet_approved' ) ;
#181 = APPLICATION_CONTEXT ( 'configuration controlled 3d designs of mechanical parts and assemblies' ) ;
#182 = ORIENTED_EDGE ( 'NONE', *, *, #146, .F. ) ;
#183 = CC_DESIGN_PERSON_AND_ORGANIZATION_ASSIGNMENT ( #53, #47, ( #172 ) ) ;
#184 = VECTOR ( 'NONE', #168, 1000.000000000000000 ) ;
#185 = LOCAL_TIME ( 14, 33, 55.00000000000000000, #189 ) ;
#186 = VECTOR ( 'NONE', #106, 1000.000000000000000 ) ;
#187 = CC_DESIGN_APPROVAL ( #169, ( #143 ) ) ;
#188 = DATE_AND_TIME ( #164, #174 ) ;
#189 = COORDINATED_UNIVERSAL_TIME_OFFSET ( 5, 0, .BEHIND. ) ;
#190 = CARTESIAN_POINT ( 'NONE',  ( 63.50000000000000000, 50.50000000000000000, 0.0000000000000000000 ) ) ;
#191 = VECTOR ( 'NONE', #195, 1000.000000000000000 ) ;
#192 = CARTESIAN_POINT ( 'NONE',  ( -63.49999999999998579, -50.50000000000000000, 3.299999999999999822 ) ) ;
#193 = ORIENTED_EDGE ( 'NONE', *, *, #71, .T. ) ;
#194 = DIRECTION ( 'NONE',  ( 1.374038396813312538E-16, -1.000000000000000000, 0.0000000000000000000 ) ) ;
#195 = DIRECTION ( 'NONE',  ( -0.0000000000000000000, -0.0000000000000000000, -1.000000000000000000 ) ) ;
#196 = EDGE_CURVE ( 'NONE', #34, #66, #224, .T. ) ;
#197 = FACE_OUTER_BOUND ( 'NONE', #60, .T. ) ;
#198 = LINE ( 'NONE', #115, #2 ) ;
#199 = DIRECTION ( 'NONE',  ( 1.000000000000000000, 1.374038396813312784E-16, -0.0000000000000000000 ) ) ;
#200 = CARTESIAN_POINT ( 'NONE',  ( -63.50000000000000000, 50.50000000000000000, 3.299999999999999822 ) ) ;
#201 = DATE_TIME_ROLE ( 'creation_date' ) ;
#202 = DESIGN_CONTEXT ( 'detailed design', #13, 'design' ) ;
#203 = ORIENTED_EDGE ( 'NONE', *, *, #94, .T. ) ;
#204 = CALENDAR_DATE ( 2020, 1, 6 ) ;
#205 = CC_DESIGN_APPROVAL ( #208, ( #55 ) ) ;
#206 = LINE ( 'NONE', #23, #82 ) ;
#207 = ORIENTED_EDGE ( 'NONE', *, *, #160, .T. ) ;
#208 = APPROVAL ( #180, 'UNSPECIFIED' ) ;
#209 = CARTESIAN_POINT ( 'NONE',  ( -63.50000000000000000, 50.50000000000000000, 3.299999999999999822 ) ) ;
#210 = LINE ( 'NONE', #209, #40 ) ;
#211 = CARTESIAN_POINT ( 'NONE',  ( 63.49999999999998579, -50.50000000000000000, 3.299999999999999822 ) ) ;
#212 = AXIS2_PLACEMENT_3D ( 'NONE', #200, #199, #81 ) ;
#213 = DIRECTION ( 'NONE',  ( 1.000000000000000000, 0.0000000000000000000, 0.0000000000000000000 ) ) ;
#214 = CALENDAR_DATE ( 2020, 1, 6 ) ;
#215 = DIRECTION ( 'NONE',  ( 0.0000000000000000000, -0.0000000000000000000, 1.000000000000000000 ) ) ;
#216 = ADVANCED_FACE ( 'NONE', ( #197 ), #14, .F. ) ;
#217 = CARTESIAN_POINT ( 'NONE',  ( 63.50000000000000000, 50.50000000000000000, 0.0000000000000000000 ) ) ;
#218 = CARTESIAN_POINT ( 'NONE',  ( 63.49999999999998579, -50.50000000000000000, 0.0000000000000000000 ) ) ;
#219 = DIRECTION ( 'NONE',  ( -0.0000000000000000000, -0.0000000000000000000, -1.000000000000000000 ) ) ;
#220 = CARTESIAN_POINT ( 'NONE',  ( -63.49999999999998579, -50.50000000000000000, 3.299999999999999822 ) ) ;
#221 = MECHANICAL_CONTEXT ( 'NONE', #181, 'mechanical' ) ;
#222 = FACE_OUTER_BOUND ( 'NONE', #56, .T. ) ;
#223 = PRODUCT_DEFINITION_FORMATION_WITH_SPECIFIED_SOURCE ( 'ANY', '', #172, .NOT_KNOWN. ) ;
#224 = LINE ( 'NONE', #137, #154 ) ;
#225 = ORIENTED_EDGE ( 'NONE', *, *, #39, .F. ) ;
#226 = ORIENTED_EDGE ( 'NONE', *, *, #118, .T. ) ;
#227 = LOCAL_TIME ( 14, 33, 55.00000000000000000, #75 ) ;
#228 = AXIS2_PLACEMENT_3D ( 'NONE', #61, #96, #229 ) ;
#229 = DIRECTION ( 'NONE',  ( -1.374038396813312784E-16, -1.000000000000000000, 0.0000000000000000000 ) ) ;
#230 = DIRECTION ( 'NONE',  ( -1.000000000000000000, -0.0000000000000000000, -0.0000000000000000000 ) ) ;
#231 = VERTEX_POINT ( 'NONE', #217 ) ;
#232 = VERTEX_POINT ( 'NONE', #218 ) ;
#233 = DIRECTION ( 'NONE',  ( -0.0000000000000000000, -0.0000000000000000000, -1.000000000000000000 ) ) ;
#234 = CARTESIAN_POINT ( 'NONE',  ( 63.49999999999998579, -50.50000000000000000, 0.0000000000000000000 ) ) ;
#235 = APPROVAL_ROLE ( '' ) ;
#236 = FACE_OUTER_BOUND ( 'NONE', #11, .T. ) ;
#237 = PERSON_AND_ORGANIZATION ( #59, #147 ) ;
ENDSEC;
END-ISO-10303-21;
